# xmcd
#
# Track frame offsets:
#	150
#	13350
#	34588
#	63512
#	94082
#	115076
#	163886
#	194721
#	233246
#	255371
#	276700
#	306059
#	320610
#
# Disc length: 4609 seconds
#
# Revision: 0
# Processed by: cddbd v1.5.1PL2 Copyright (c) Steve Scherf et al.
# Submitted via: EasyCDDAExtractor 9.0.0.1
#
DISCID=bd11ff0d
DTITLE=Jerry Garcia and Phil Lesh with Leon Russell - Armadillo World Headquar
DTITLE=ters 11-23-1972 [CD2]
DYEAR=1972
DGENRE=Blues
TTITLE0=Orange Blossom Special
TTITLE1=Kentucky Waltz
TTITLE2=Big Boss Man
TTITLE3=Searchin'
TTITLE4=Lonely Lonely Nights/Shake A Hand
TTITLE5=Hey Bo Diddley
TTITLE6=It Takes A Lot To Laugh, It Takes A Train To Cry
TTITLE7=Hard Rain's Gonna Fall
TTITLE8=Wild Horses
TTITLE9=Slippin' Into Christmas
TTITLE10=Money Honey
TTITLE11=Chug A Lug
TTITLE12=Roll Over Beethoven/Good Golly Miss Molly/Roll Over Beethoven
EXTD=
EXTT0=
EXTT1=
EXTT2=
EXTT3=
EXTT4=
EXTT5=
EXTT6=
EXTT7=
EXTT8=
EXTT9=
EXTT10=
EXTT11=
EXTT12=
PLAYORDER=
